<?xml version="1.0" encoding="UTF-8" standalone="no"?>
<!DOCTYPE svg PUBLIC "-//W3C//DTD SVG 1.1//EN"
 "http://www.w3.org/Graphics/SVG/1.1/DTD/svg11.dtd">
<!-- Generated by graphviz version 2.42.4 (0)
 -->
<!-- Title: SecurityArchitectureCN Pages: 1 -->
<svg width="958pt" height="1342pt"
 viewBox="0.00 0.00 958.00 1341.76" xmlns="http://www.w3.org/2000/svg" xmlns:xlink="http://www.w3.org/1999/xlink">
<g id="graph0" class="graph" transform="scale(1 1) rotate(0) translate(4 1337.76)">
<title>SecurityArchitectureCN</title>
<text text-anchor="middle" x="475" y="-1315.36" font-family="Arial Bold" font-size="18.00">18 层纵深防御安全架构</text>
<g id="clust1" class="cluster">
<title>cluster_L0</title>
<path fill="#e3f2fd" stroke="#1565c0" stroke-width="2" d="M553,-1207.02C553,-1207.02 892,-1207.02 892,-1207.02 898,-1207.02 904,-1213.02 904,-1219.02 904,-1219.02 904,-1285.76 904,-1285.76 904,-1291.76 898,-1297.76 892,-1297.76 892,-1297.76 553,-1297.76 553,-1297.76 547,-1297.76 541,-1291.76 541,-1285.76 541,-1285.76 541,-1219.02 541,-1219.02 541,-1213.02 547,-1207.02 553,-1207.02"/>
<text text-anchor="middle" x="722.5" y="-1284.16" font-family="Arial Bold" font-size="12.00">第 0 层: 物理与网络安全</text>
</g>
<g id="clust2" class="cluster">
<title>cluster_L1</title>
<path fill="#e8eaf6" stroke="#283593" stroke-width="2" d="M544,-1108.28C544,-1108.28 922,-1108.28 922,-1108.28 928,-1108.28 934,-1114.28 934,-1120.28 934,-1120.28 934,-1187.02 934,-1187.02 934,-1193.02 928,-1199.02 922,-1199.02 922,-1199.02 544,-1199.02 544,-1199.02 538,-1199.02 532,-1193.02 532,-1187.02 532,-1187.02 532,-1120.28 532,-1120.28 532,-1114.28 538,-1108.28 544,-1108.28"/>
<text text-anchor="middle" x="733" y="-1185.42" font-family="Arial Bold" font-size="12.00">第 1 层: 传输安全</text>
</g>
<g id="clust3" class="cluster">
<title>cluster_L2</title>
<path fill="#e0f2f1" stroke="#00695c" stroke-width="2" d="M20,-1009.54C20,-1009.54 906,-1009.54 906,-1009.54 912,-1009.54 918,-1015.54 918,-1021.54 918,-1021.54 918,-1088.28 918,-1088.28 918,-1094.28 912,-1100.28 906,-1100.28 906,-1100.28 20,-1100.28 20,-1100.28 14,-1100.28 8,-1094.28 8,-1088.28 8,-1088.28 8,-1021.54 8,-1021.54 8,-1015.54 14,-1009.54 20,-1009.54"/>
<text text-anchor="middle" x="463" y="-1086.68" font-family="Arial Bold" font-size="12.00">第 2 层: HTTP 安全响应头</text>
</g>
<g id="clust4" class="cluster">
<title>cluster_L3</title>
<path fill="#fff3e0" stroke="#e65100" stroke-width="2" d="M461,-896.66C461,-896.66 921,-896.66 921,-896.66 927,-896.66 933,-902.66 933,-908.66 933,-908.66 933,-989.54 933,-989.54 933,-995.54 927,-1001.54 921,-1001.54 921,-1001.54 461,-1001.54 461,-1001.54 455,-1001.54 449,-995.54 449,-989.54 449,-989.54 449,-908.66 449,-908.66 449,-902.66 455,-896.66 461,-896.66"/>
<text text-anchor="middle" x="691" y="-987.94" font-family="Arial Bold" font-size="12.00">第 3 层: 请求校验</text>
</g>
<g id="clust5" class="cluster">
<title>cluster_L4</title>
<path fill="#ffebee" stroke="#b71c1c" stroke-width="2" d="M384,-797.92C384,-797.92 889,-797.92 889,-797.92 895,-797.92 901,-803.92 901,-809.92 901,-809.92 901,-876.66 901,-876.66 901,-882.66 895,-888.66 889,-888.66 889,-888.66 384,-888.66 384,-888.66 378,-888.66 372,-882.66 372,-876.66 372,-876.66 372,-809.92 372,-809.92 372,-803.92 378,-797.92 384,-797.92"/>
<text text-anchor="middle" x="636.5" y="-875.06" font-family="Arial Bold" font-size="12.00">第 4 层: 输入净化</text>
</g>
<g id="clust6" class="cluster">
<title>cluster_L5</title>
<path fill="#fce4ec" stroke="#c62828" stroke-width="2" d="M477,-699.18C477,-699.18 883,-699.18 883,-699.18 889,-699.18 895,-705.18 895,-711.18 895,-711.18 895,-777.92 895,-777.92 895,-783.92 889,-789.92 883,-789.92 883,-789.92 477,-789.92 477,-789.92 471,-789.92 465,-783.92 465,-777.92 465,-777.92 465,-711.18 465,-711.18 465,-705.18 471,-699.18 477,-699.18"/>
<text text-anchor="middle" x="680" y="-776.32" font-family="Arial Bold" font-size="12.00">第 5 层: CSRF 防护</text>
</g>
<g id="clust7" class="cluster">
<title>cluster_L6</title>
<path fill="#ede7f6" stroke="#4527a0" stroke-width="2" d="M330,-600.44C330,-600.44 895,-600.44 895,-600.44 901,-600.44 907,-606.44 907,-612.44 907,-612.44 907,-679.18 907,-679.18 907,-685.18 901,-691.18 895,-691.18 895,-691.18 330,-691.18 330,-691.18 324,-691.18 318,-685.18 318,-679.18 318,-679.18 318,-612.44 318,-612.44 318,-606.44 324,-600.44 330,-600.44"/>
<text text-anchor="middle" x="612.5" y="-677.58" font-family="Arial Bold" font-size="12.00">第 6 层: 限流控制</text>
</g>
<g id="clust8" class="cluster">
<title>cluster_L7</title>
<path fill="#e8f5e9" stroke="#2e7d32" stroke-width="2" d="M335,-501.7C335,-501.7 928,-501.7 928,-501.7 934,-501.7 940,-507.7 940,-513.7 940,-513.7 940,-580.44 940,-580.44 940,-586.44 934,-592.44 928,-592.44 928,-592.44 335,-592.44 335,-592.44 329,-592.44 323,-586.44 323,-580.44 323,-580.44 323,-513.7 323,-513.7 323,-507.7 329,-501.7 335,-501.7"/>
<text text-anchor="middle" x="631.5" y="-578.84" font-family="Arial Bold" font-size="12.00">第 7 层: 身份认证</text>
</g>
<g id="clust9" class="cluster">
<title>cluster_L8</title>
<path fill="#f3e5f5" stroke="#6a1b9a" stroke-width="2" d="M438,-402.96C438,-402.96 877,-402.96 877,-402.96 883,-402.96 889,-408.96 889,-414.96 889,-414.96 889,-481.7 889,-481.7 889,-487.7 883,-493.7 877,-493.7 877,-493.7 438,-493.7 438,-493.7 432,-493.7 426,-487.7 426,-481.7 426,-481.7 426,-414.96 426,-414.96 426,-408.96 432,-402.96 438,-402.96"/>
<text text-anchor="middle" x="657.5" y="-480.1" font-family="Arial Bold" font-size="12.00">第 8 层: 授权鉴权 (RBAC)</text>
</g>
<g id="clust10" class="cluster">
<title>cluster_L9</title>
<path fill="#fff8e1" stroke="#f57f17" stroke-width="2" d="M350,-304.22C350,-304.22 896,-304.22 896,-304.22 902,-304.22 908,-310.22 908,-316.22 908,-316.22 908,-382.96 908,-382.96 908,-388.96 902,-394.96 896,-394.96 896,-394.96 350,-394.96 350,-394.96 344,-394.96 338,-388.96 338,-382.96 338,-382.96 338,-316.22 338,-316.22 338,-310.22 344,-304.22 350,-304.22"/>
<text text-anchor="middle" x="623" y="-381.36" font-family="Arial Bold" font-size="12.00">第 9 层: 数据保护</text>
</g>
<g id="clust11" class="cluster">
<title>cluster_L10</title>
<path fill="#e0f7fa" stroke="#00838f" stroke-width="2" d="M271,-205.48C271,-205.48 930,-205.48 930,-205.48 936,-205.48 942,-211.48 942,-217.48 942,-217.48 942,-284.22 942,-284.22 942,-290.22 936,-296.22 930,-296.22 930,-296.22 271,-296.22 271,-296.22 265,-296.22 259,-290.22 259,-284.22 259,-284.22 259,-217.48 259,-217.48 259,-211.48 265,-205.48 271,-205.48"/>
<text text-anchor="middle" x="600.5" y="-282.62" font-family="Arial Bold" font-size="12.00">第 10 层: 审计与监控</text>
</g>
<g id="clust12" class="cluster">
<title>cluster_L11</title>
<path fill="#efebe9" stroke="#4e342e" stroke-width="2" d="M470,-106.74C470,-106.74 912,-106.74 912,-106.74 918,-106.74 924,-112.74 924,-118.74 924,-118.74 924,-185.48 924,-185.48 924,-191.48 918,-197.48 912,-197.48 912,-197.48 470,-197.48 470,-197.48 464,-197.48 458,-191.48 458,-185.48 458,-185.48 458,-118.74 458,-118.74 458,-112.74 464,-106.74 470,-106.74"/>
<text text-anchor="middle" x="691" y="-183.88" font-family="Arial Bold" font-size="12.00">第 11 层: 合规与披露</text>
</g>
<g id="clust13" class="cluster">
<title>cluster_L12</title>
<path fill="#fafafa" stroke="#bdbdbd" stroke-width="2" stroke-dasharray="5,2" d="M520,-8C520,-8 896,-8 896,-8 902,-8 908,-14 908,-20 908,-20 908,-86.74 908,-86.74 908,-92.74 902,-98.74 896,-98.74 896,-98.74 520,-98.74 520,-98.74 514,-98.74 508,-92.74 508,-86.74 508,-86.74 508,-20 508,-20 508,-14 514,-8 520,-8"/>
<text text-anchor="middle" x="708" y="-85.14" font-family="Arial Bold" font-size="12.00">第 12 层: 可观测性 (P2 规划中)</text>
</g>
<!-- L0a -->
<g id="node1" class="node">
<title>L0a</title>
<ellipse fill="#bbdefb" stroke="#1976d2" stroke-width="1.5" cx="837" cy="-1241.89" rx="58.88" ry="26.74"/>
<text text-anchor="middle" x="837" y="-1249.69" font-family="Arial" font-size="9.00">Nginx 反向代理</text>
<text text-anchor="middle" x="837" y="-1239.69" font-family="Arial" font-size="9.00">SSL/TLS 终止</text>
<text text-anchor="middle" x="837" y="-1229.69" font-family="Arial" font-size="9.00">HSTS / 证书管理</text>
</g>
<!-- L1a -->
<g id="node4" class="node">
<title>L1a</title>
<ellipse fill="#c5cae9" stroke="#3949ab" stroke-width="1.5" cx="837" cy="-1143.15" rx="89.19" ry="26.74"/>
<text text-anchor="middle" x="837" y="-1150.95" font-family="Arial" font-size="9.00">HTTPS 强制</text>
<text text-anchor="middle" x="837" y="-1140.95" font-family="Arial" font-size="9.00">HTTP 重定向到 HTTPS</text>
<text text-anchor="middle" x="837" y="-1130.95" font-family="Arial" font-size="9.00">HSTS max&#45;age=31536000</text>
</g>
<!-- L0a&#45;&gt;L1a -->
<g id="edge1" class="edge">
<title>L0a&#45;&gt;L1a</title>
<path fill="none" stroke="#90a4ae" stroke-width="1.5" d="M837,-1214.97C837,-1204.34 837,-1191.86 837,-1180.36"/>
<polygon fill="#90a4ae" stroke="#90a4ae" stroke-width="1.5" points="840.5,-1180.15 837,-1170.15 833.5,-1180.15 840.5,-1180.15"/>
</g>
<!-- L0b -->
<g id="node2" class="node">
<title>L0b</title>
<ellipse fill="#bbdefb" stroke="#1976d2" stroke-width="1.5" cx="718" cy="-1241.89" rx="46.84" ry="26.74"/>
<text text-anchor="middle" x="718" y="-1249.69" font-family="Arial" font-size="9.00">Docker 网络</text>
<text text-anchor="middle" x="718" y="-1239.69" font-family="Arial" font-size="9.00">隔离网桥</text>
<text text-anchor="middle" x="718" y="-1229.69" font-family="Arial" font-size="9.00">仅内部端口</text>
</g>
<!-- L0c -->
<g id="node3" class="node">
<title>L0c</title>
<ellipse fill="#bbdefb" stroke="#1976d2" stroke-width="1.5" cx="603" cy="-1241.89" rx="54.39" ry="26.74"/>
<text text-anchor="middle" x="603" y="-1249.69" font-family="Arial" font-size="9.00">防火墙规则</text>
<text text-anchor="middle" x="603" y="-1239.69" font-family="Arial" font-size="9.00">端口白名单</text>
<text text-anchor="middle" x="603" y="-1229.69" font-family="Arial" font-size="9.00">仅 80/443 对外</text>
</g>
<!-- L2a -->
<g id="node7" class="node">
<title>L2a</title>
<ellipse fill="#b2dfdb" stroke="#00897b" stroke-width="1.5" cx="837" cy="-1044.41" rx="72.66" ry="26.74"/>
<text text-anchor="middle" x="837" y="-1052.21" font-family="Arial" font-size="9.00">内容安全策略(CSP)</text>
<text text-anchor="middle" x="837" y="-1042.21" font-family="Arial" font-size="9.00">default&#45;src &#39;self&#39;</text>
<text text-anchor="middle" x="837" y="-1032.21" font-family="Arial" font-size="9.00">防止 XSS 和数据注入</text>
</g>
<!-- L1a&#45;&gt;L2a -->
<g id="edge2" class="edge">
<title>L1a&#45;&gt;L2a</title>
<path fill="none" stroke="#90a4ae" stroke-width="1.5" d="M837,-1116.23C837,-1105.6 837,-1093.12 837,-1081.62"/>
<polygon fill="#90a4ae" stroke="#90a4ae" stroke-width="1.5" points="840.5,-1081.41 837,-1071.41 833.5,-1081.41 840.5,-1081.41"/>
</g>
<!-- L1b -->
<g id="node5" class="node">
<title>L1b</title>
<ellipse fill="#c5cae9" stroke="#3949ab" stroke-width="1.5" cx="688" cy="-1143.15" rx="45.92" ry="26.74"/>
<text text-anchor="middle" x="688" y="-1150.95" font-family="Arial" font-size="9.00">仅 TLS 1.2+</text>
<text text-anchor="middle" x="688" y="-1140.95" font-family="Arial" font-size="9.00">强密码套件</text>
<text text-anchor="middle" x="688" y="-1130.95" font-family="Arial" font-size="9.00">禁用弱协议</text>
</g>
<!-- L1c -->
<g id="node6" class="node">
<title>L1c</title>
<ellipse fill="#c5cae9" stroke="#3949ab" stroke-width="1.5" cx="584" cy="-1143.15" rx="43.68" ry="26.74"/>
<text text-anchor="middle" x="584" y="-1150.95" font-family="Arial" font-size="9.00">证书验证</text>
<text text-anchor="middle" x="584" y="-1140.95" font-family="Arial" font-size="9.00">OCSP 装订</text>
<text text-anchor="middle" x="584" y="-1130.95" font-family="Arial" font-size="9.00">证书透明度</text>
</g>
<!-- L3a -->
<g id="node13" class="node">
<title>L3a</title>
<ellipse fill="#ffe0b2" stroke="#ef6c00" stroke-width="1.5" cx="837" cy="-938.6" rx="87.86" ry="33.88"/>
<text text-anchor="middle" x="837" y="-951.4" font-family="Arial" font-size="9.00">HTTP 方法检查</text>
<text text-anchor="middle" x="837" y="-941.4" font-family="Arial" font-size="9.00">仅允许 GET/POST/PUT</text>
<text text-anchor="middle" x="837" y="-931.4" font-family="Arial" font-size="9.00">/DELETE/OPTIONS/HEAD</text>
<text text-anchor="middle" x="837" y="-921.4" font-family="Arial" font-size="9.00">→ 返回 405</text>
</g>
<!-- L2a&#45;&gt;L3a -->
<g id="edge3" class="edge">
<title>L2a&#45;&gt;L3a</title>
<path fill="none" stroke="#90a4ae" stroke-width="1.5" d="M837,-1017.49C837,-1006.99 837,-994.58 837,-982.79"/>
<polygon fill="#90a4ae" stroke="#90a4ae" stroke-width="1.5" points="840.5,-982.65 837,-972.65 833.5,-982.65 840.5,-982.65"/>
</g>
<!-- L2b -->
<g id="node8" class="node">
<title>L2b</title>
<ellipse fill="#b2dfdb" stroke="#00897b" stroke-width="1.5" cx="668" cy="-1044.41" rx="82.05" ry="26.74"/>
<text text-anchor="middle" x="668" y="-1052.21" font-family="Arial" font-size="9.00">X&#45;Content&#45;Type&#45;Options</text>
<text text-anchor="middle" x="668" y="-1042.21" font-family="Arial" font-size="9.00">nosniff</text>
<text text-anchor="middle" x="668" y="-1032.21" font-family="Arial" font-size="9.00">防止 MIME 类型嗅探</text>
</g>
<!-- L2c -->
<g id="node9" class="node">
<title>L2c</title>
<ellipse fill="#b2dfdb" stroke="#00897b" stroke-width="1.5" cx="511" cy="-1044.41" rx="60.62" ry="26.74"/>
<text text-anchor="middle" x="511" y="-1052.21" font-family="Arial" font-size="9.00">X&#45;Frame&#45;Options</text>
<text text-anchor="middle" x="511" y="-1042.21" font-family="Arial" font-size="9.00">DENY</text>
<text text-anchor="middle" x="511" y="-1032.21" font-family="Arial" font-size="9.00">防止点击劫持</text>
</g>
<!-- L2d -->
<g id="node10" class="node">
<title>L2d</title>
<ellipse fill="#b2dfdb" stroke="#00897b" stroke-width="1.5" cx="370" cy="-1044.41" rx="66.44" ry="26.74"/>
<text text-anchor="middle" x="370" y="-1052.21" font-family="Arial" font-size="9.00">X&#45;XSS&#45;Protection</text>
<text text-anchor="middle" x="370" y="-1042.21" font-family="Arial" font-size="9.00">1; mode=block</text>
<text text-anchor="middle" x="370" y="-1032.21" font-family="Arial" font-size="9.00">浏览器 XSS 过滤器</text>
</g>
<!-- L2e -->
<g id="node11" class="node">
<title>L2e</title>
<ellipse fill="#b2dfdb" stroke="#00897b" stroke-width="1.5" cx="227" cy="-1044.41" rx="62.87" ry="26.74"/>
<text text-anchor="middle" x="227" y="-1052.21" font-family="Arial" font-size="9.00">Referrer&#45;Policy</text>
<text text-anchor="middle" x="227" y="-1042.21" font-family="Arial" font-size="9.00">strict&#45;origin</text>
<text text-anchor="middle" x="227" y="-1032.21" font-family="Arial" font-size="9.00">限制引荐来源泄漏</text>
</g>
<!-- L2f -->
<g id="node12" class="node">
<title>L2f</title>
<ellipse fill="#b2dfdb" stroke="#00897b" stroke-width="1.5" cx="83" cy="-1044.41" rx="67.35" ry="26.74"/>
<text text-anchor="middle" x="83" y="-1052.21" font-family="Arial" font-size="9.00">Permissions&#45;Policy</text>
<text text-anchor="middle" x="83" y="-1042.21" font-family="Arial" font-size="9.00">camera=() mic=()</text>
<text text-anchor="middle" x="83" y="-1032.21" font-family="Arial" font-size="9.00">禁用未使用API</text>
</g>
<!-- L4a -->
<g id="node16" class="node">
<title>L4a</title>
<ellipse fill="#ffcdd2" stroke="#d32f2f" stroke-width="1.5" cx="837" cy="-832.79" rx="55.72" ry="26.74"/>
<text text-anchor="middle" x="837" y="-840.59" font-family="Arial" font-size="9.00">XSS 过滤器</text>
<text text-anchor="middle" x="837" y="-830.59" font-family="Arial" font-size="9.00">HTML 实体编码</text>
<text text-anchor="middle" x="837" y="-820.59" font-family="Arial" font-size="9.00">去除脚本标签</text>
</g>
<!-- L3a&#45;&gt;L4a -->
<g id="edge4" class="edge">
<title>L3a&#45;&gt;L4a</title>
<path fill="none" stroke="#90a4ae" stroke-width="1.5" d="M837,-904.47C837,-893.5 837,-881.23 837,-870.04"/>
<polygon fill="#90a4ae" stroke="#90a4ae" stroke-width="1.5" points="840.5,-869.71 837,-859.71 833.5,-869.71 840.5,-869.71"/>
</g>
<!-- L3b -->
<g id="node14" class="node">
<title>L3b</title>
<ellipse fill="#ffe0b2" stroke="#ef6c00" stroke-width="1.5" cx="679" cy="-938.6" rx="56.64" ry="26.74"/>
<text text-anchor="middle" x="679" y="-946.4" font-family="Arial" font-size="9.00">请求体大小限制</text>
<text text-anchor="middle" x="679" y="-936.4" font-family="Arial" font-size="9.00">最大 10MB</text>
<text text-anchor="middle" x="679" y="-926.4" font-family="Arial" font-size="9.00">→ 返回 413</text>
</g>
<!-- L3c -->
<g id="node15" class="node">
<title>L3c</title>
<ellipse fill="#ffe0b2" stroke="#ef6c00" stroke-width="1.5" cx="533" cy="-938.6" rx="75.82" ry="26.74"/>
<text text-anchor="middle" x="533" y="-946.4" font-family="Arial" font-size="9.00">Content&#45;Type 检查</text>
<text text-anchor="middle" x="533" y="-936.4" font-family="Arial" font-size="9.00">变更操作仅允许 JSON</text>
<text text-anchor="middle" x="533" y="-926.4" font-family="Arial" font-size="9.00">→ 返回 415</text>
</g>
<!-- L5a -->
<g id="node20" class="node">
<title>L5a</title>
<ellipse fill="#ffcdd2" stroke="#d32f2f" stroke-width="1.5" cx="837" cy="-734.05" rx="50.41" ry="26.74"/>
<text text-anchor="middle" x="837" y="-741.85" font-family="Arial" font-size="9.00">Origin 头检查</text>
<text text-anchor="middle" x="837" y="-731.85" font-family="Arial" font-size="9.00">同源验证</text>
<text text-anchor="middle" x="837" y="-721.85" font-family="Arial" font-size="9.00">Referer 校验</text>
</g>
<!-- L4a&#45;&gt;L5a -->
<g id="edge5" class="edge">
<title>L4a&#45;&gt;L5a</title>
<path fill="none" stroke="#90a4ae" stroke-width="1.5" d="M837,-805.87C837,-795.24 837,-782.76 837,-771.25"/>
<polygon fill="#90a4ae" stroke="#90a4ae" stroke-width="1.5" points="840.5,-771.05 837,-761.05 833.5,-771.05 840.5,-771.05"/>
</g>
<!-- L4b -->
<g id="node17" class="node">
<title>L4b</title>
<ellipse fill="#ffcdd2" stroke="#d32f2f" stroke-width="1.5" cx="699" cy="-832.79" rx="68.68" ry="26.74"/>
<text text-anchor="middle" x="699" y="-840.59" font-family="Arial" font-size="9.00">SQL 注入防御</text>
<text text-anchor="middle" x="699" y="-830.59" font-family="Arial" font-size="9.00">参数化查询</text>
<text text-anchor="middle" x="699" y="-820.59" font-family="Arial" font-size="9.00">Eloquent ORM 绑定</text>
</g>
<!-- L4c -->
<g id="node18" class="node">
<title>L4c</title>
<ellipse fill="#ffcdd2" stroke="#d32f2f" stroke-width="1.5" cx="566" cy="-832.79" rx="50.41" ry="26.74"/>
<text text-anchor="middle" x="566" y="-840.59" font-family="Arial" font-size="9.00">路径遍历阻止</text>
<text text-anchor="middle" x="566" y="-830.59" font-family="Arial" font-size="9.00">真实路径验证</text>
<text text-anchor="middle" x="566" y="-820.59" font-family="Arial" font-size="9.00">../ 过滤</text>
</g>
<!-- L4d -->
<g id="node19" class="node">
<title>L4d</title>
<ellipse fill="#ffcdd2" stroke="#d32f2f" stroke-width="1.5" cx="441" cy="-832.79" rx="60.62" ry="26.74"/>
<text text-anchor="middle" x="441" y="-840.59" font-family="Arial" font-size="9.00">命令注入防御</text>
<text text-anchor="middle" x="441" y="-830.59" font-family="Arial" font-size="9.00">escapeshellarg()</text>
<text text-anchor="middle" x="441" y="-820.59" font-family="Arial" font-size="9.00">进程白名单</text>
</g>
<!-- L6a -->
<g id="node23" class="node">
<title>L6a</title>
<ellipse fill="#d1c4e9" stroke="#5e35b1" stroke-width="1.5" cx="837" cy="-635.31" rx="61.54" ry="26.74"/>
<text text-anchor="middle" x="837" y="-643.11" font-family="Arial" font-size="9.00">Redis 滑动窗口</text>
<text text-anchor="middle" x="837" y="-633.11" font-family="Arial" font-size="9.00">Lua 原子脚本</text>
<text text-anchor="middle" x="837" y="-623.11" font-family="Arial" font-size="9.00">默认 60次/分钟/IP</text>
</g>
<!-- L5a&#45;&gt;L6a -->
<g id="edge6" class="edge">
<title>L5a&#45;&gt;L6a</title>
<path fill="none" stroke="#90a4ae" stroke-width="1.5" d="M837,-707.13C837,-696.5 837,-684.02 837,-672.51"/>
<polygon fill="#90a4ae" stroke="#90a4ae" stroke-width="1.5" points="840.5,-672.31 837,-662.31 833.5,-672.31 840.5,-672.31"/>
</g>
<!-- L5b -->
<g id="node21" class="node">
<title>L5b</title>
<ellipse fill="#ffcdd2" stroke="#d32f2f" stroke-width="1.5" cx="695" cy="-734.05" rx="77.56" ry="26.74"/>
<text text-anchor="middle" x="695" y="-741.85" font-family="Arial" font-size="9.00">Content&#45;Type 验证</text>
<text text-anchor="middle" x="695" y="-731.85" font-family="Arial" font-size="9.00">要求 Application/JSON</text>
<text text-anchor="middle" x="695" y="-721.85" font-family="Arial" font-size="9.00">禁止表单编码变更</text>
</g>
<!-- L5c -->
<g id="node22" class="node">
<title>L5c</title>
<ellipse fill="#ffcdd2" stroke="#d32f2f" stroke-width="1.5" cx="538" cy="-734.05" rx="65.11" ry="26.74"/>
<text text-anchor="middle" x="538" y="-741.85" font-family="Arial" font-size="9.00">自定义头检查</text>
<text text-anchor="middle" x="538" y="-731.85" font-family="Arial" font-size="9.00">X&#45;Requested&#45;With</text>
<text text-anchor="middle" x="538" y="-721.85" font-family="Arial" font-size="9.00">AJAX 请求检测</text>
</g>
<!-- L7a -->
<g id="node27" class="node">
<title>L7a</title>
<ellipse fill="#c8e6c9" stroke="#388e3c" stroke-width="1.5" cx="837" cy="-536.57" rx="94.51" ry="26.74"/>
<text text-anchor="middle" x="837" y="-544.37" font-family="Arial" font-size="9.00">JWT 令牌</text>
<text text-anchor="middle" x="837" y="-534.37" font-family="Arial" font-size="9.00">HMAC&#45;SHA256 签名</text>
<text text-anchor="middle" x="837" y="-524.37" font-family="Arial" font-size="9.00">访问令牌2小时/刷新令牌14天</text>
</g>
<!-- L6a&#45;&gt;L7a -->
<g id="edge7" class="edge">
<title>L6a&#45;&gt;L7a</title>
<path fill="none" stroke="#90a4ae" stroke-width="1.5" d="M837,-608.39C837,-597.76 837,-585.28 837,-573.77"/>
<polygon fill="#90a4ae" stroke="#90a4ae" stroke-width="1.5" points="840.5,-573.57 837,-563.57 833.5,-573.57 840.5,-573.57"/>
</g>
<!-- L6b -->
<g id="node24" class="node">
<title>L6b</title>
<ellipse fill="#d1c4e9" stroke="#5e35b1" stroke-width="1.5" cx="711" cy="-635.31" rx="50.41" ry="26.74"/>
<text text-anchor="middle" x="711" y="-643.11" font-family="Arial" font-size="9.00">认证端点限制</text>
<text text-anchor="middle" x="711" y="-633.11" font-family="Arial" font-size="9.00">登录:10次/分</text>
<text text-anchor="middle" x="711" y="-623.11" font-family="Arial" font-size="9.00">注册:5次/分</text>
</g>
<!-- L6c -->
<g id="node25" class="node">
<title>L6c</title>
<ellipse fill="#d1c4e9" stroke="#5e35b1" stroke-width="1.5" cx="573" cy="-635.31" rx="73.58" ry="26.74"/>
<text text-anchor="middle" x="573" y="-643.11" font-family="Arial" font-size="9.00">账号锁定</text>
<text text-anchor="middle" x="573" y="-633.11" font-family="Arial" font-size="9.00">5次失败→锁定15分钟</text>
<text text-anchor="middle" x="573" y="-623.11" font-family="Arial" font-size="9.00">渐进式延迟</text>
</g>
<!-- L6d -->
<g id="node26" class="node">
<title>L6d</title>
<ellipse fill="#d1c4e9" stroke="#5e35b1" stroke-width="1.5" cx="406" cy="-635.31" rx="79.81" ry="26.74"/>
<text text-anchor="middle" x="406" y="-643.11" font-family="Arial" font-size="9.00">限流响应头</text>
<text text-anchor="middle" x="406" y="-633.11" font-family="Arial" font-size="9.00">X&#45;RateLimit&#45;Limit</text>
<text text-anchor="middle" x="406" y="-623.11" font-family="Arial" font-size="9.00">X&#45;RateLimit&#45;Remaining</text>
</g>
<!-- L8a -->
<g id="node31" class="node">
<title>L8a</title>
<ellipse fill="#e1bee7" stroke="#7b1fa2" stroke-width="1.5" cx="837" cy="-437.83" rx="43.68" ry="26.74"/>
<text text-anchor="middle" x="837" y="-445.63" font-family="Arial" font-size="9.00">权限树</text>
<text text-anchor="middle" x="837" y="-435.63" font-family="Arial" font-size="9.00">层级继承</text>
<text text-anchor="middle" x="837" y="-425.63" font-family="Arial" font-size="9.00">父→子级联</text>
</g>
<!-- L7a&#45;&gt;L8a -->
<g id="edge8" class="edge">
<title>L7a&#45;&gt;L8a</title>
<path fill="none" stroke="#90a4ae" stroke-width="1.5" d="M837,-509.65C837,-499.02 837,-486.53 837,-475.03"/>
<polygon fill="#90a4ae" stroke="#90a4ae" stroke-width="1.5" points="840.5,-474.83 837,-464.83 833.5,-474.83 840.5,-474.83"/>
</g>
<!-- L7b -->
<g id="node28" class="node">
<title>L7b</title>
<ellipse fill="#c8e6c9" stroke="#388e3c" stroke-width="1.5" cx="678" cy="-536.57" rx="50.41" ry="26.74"/>
<text text-anchor="middle" x="678" y="-544.37" font-family="Arial" font-size="9.00">点击验证码</text>
<text text-anchor="middle" x="678" y="-534.37" font-family="Arial" font-size="9.00">随机位置验证</text>
<text text-anchor="middle" x="678" y="-524.37" font-family="Arial" font-size="9.00">图片干扰扭曲</text>
</g>
<!-- L7c -->
<g id="node29" class="node">
<title>L7c</title>
<ellipse fill="#c8e6c9" stroke="#388e3c" stroke-width="1.5" cx="555" cy="-536.57" rx="58.88" ry="26.74"/>
<text text-anchor="middle" x="555" y="-544.37" font-family="Arial" font-size="9.00">令牌黑名单</text>
<text text-anchor="middle" x="555" y="-534.37" font-family="Arial" font-size="9.00">Redis 键值存储</text>
<text text-anchor="middle" x="555" y="-524.37" font-family="Arial" font-size="9.00">TTL=剩余有效期</text>
</g>
<!-- L7d -->
<g id="node30" class="node">
<title>L7d</title>
<ellipse fill="#c8e6c9" stroke="#388e3c" stroke-width="1.5" cx="407" cy="-536.57" rx="75.82" ry="26.74"/>
<text text-anchor="middle" x="407" y="-544.37" font-family="Arial" font-size="9.00">会话控制</text>
<text text-anchor="middle" x="407" y="-534.37" font-family="Arial" font-size="9.00">每用户最多3令牌</text>
<text text-anchor="middle" x="407" y="-524.37" font-family="Arial" font-size="9.00">最旧令牌自动加黑名单</text>
</g>
<!-- L9a -->
<g id="node35" class="node">
<title>L9a</title>
<ellipse fill="#ffecb3" stroke="#ffa000" stroke-width="1.5" cx="837" cy="-339.09" rx="62.87" ry="26.74"/>
<text text-anchor="middle" x="837" y="-346.89" font-family="Arial" font-size="9.00">传输加密</text>
<text text-anchor="middle" x="837" y="-336.89" font-family="Arial" font-size="9.00">AES&#45;256&#45;CBC</text>
<text text-anchor="middle" x="837" y="-326.89" font-family="Arial" font-size="9.00">API 请求/响应加密</text>
</g>
<!-- L8a&#45;&gt;L9a -->
<g id="edge9" class="edge">
<title>L8a&#45;&gt;L9a</title>
<path fill="none" stroke="#90a4ae" stroke-width="1.5" d="M837,-410.91C837,-400.28 837,-387.79 837,-376.29"/>
<polygon fill="#90a4ae" stroke="#90a4ae" stroke-width="1.5" points="840.5,-376.09 837,-366.09 833.5,-376.09 840.5,-376.09"/>
</g>
<!-- L8b -->
<g id="node32" class="node">
<title>L8b</title>
<ellipse fill="#e1bee7" stroke="#7b1fa2" stroke-width="1.5" cx="728" cy="-437.83" rx="51.74" ry="26.74"/>
<text text-anchor="middle" x="728" y="-445.63" font-family="Arial" font-size="9.00">方法.路径匹配</text>
<text text-anchor="middle" x="728" y="-435.63" font-family="Arial" font-size="9.00">控制器+操作</text>
<text text-anchor="middle" x="728" y="-425.63" font-family="Arial" font-size="9.00">通配符支持</text>
</g>
<!-- L8c -->
<g id="node33" class="node">
<title>L8c</title>
<ellipse fill="#e1bee7" stroke="#7b1fa2" stroke-width="1.5" cx="607" cy="-437.83" rx="55.72" ry="26.74"/>
<text text-anchor="middle" x="607" y="-445.63" font-family="Arial" font-size="9.00">Redis 缓存权限</text>
<text text-anchor="middle" x="607" y="-435.63" font-family="Arial" font-size="9.00">TTL 60秒缓存</text>
<text text-anchor="middle" x="607" y="-425.63" font-family="Arial" font-size="9.00">消除 N+1 查询</text>
</g>
<!-- L8d -->
<g id="node34" class="node">
<title>L8d</title>
<ellipse fill="#e1bee7" stroke="#7b1fa2" stroke-width="1.5" cx="486" cy="-437.83" rx="51.74" ry="26.74"/>
<text text-anchor="middle" x="486" y="-445.63" font-family="Arial" font-size="9.00">敏感操作验证</text>
<text text-anchor="middle" x="486" y="-435.63" font-family="Arial" font-size="9.00">密码二次确认</text>
<text text-anchor="middle" x="486" y="-425.63" font-family="Arial" font-size="9.00">删除/配置变更</text>
</g>
<!-- L10a -->
<g id="node39" class="node">
<title>L10a</title>
<ellipse fill="#b2ebf2" stroke="#0097a7" stroke-width="1.5" cx="837" cy="-240.35" rx="96.75" ry="26.74"/>
<text text-anchor="middle" x="837" y="-248.15" font-family="Arial" font-size="9.00">操作日志</text>
<text text-anchor="middle" x="837" y="-238.15" font-family="Arial" font-size="9.00">POST/PUT/DELETE 自动记录</text>
<text text-anchor="middle" x="837" y="-228.15" font-family="Arial" font-size="9.00">用户/IP/来源/参数</text>
</g>
<!-- L9a&#45;&gt;L10a -->
<g id="edge10" class="edge">
<title>L9a&#45;&gt;L10a</title>
<path fill="none" stroke="#90a4ae" stroke-width="1.5" d="M837,-312.17C837,-301.54 837,-289.05 837,-277.55"/>
<polygon fill="#90a4ae" stroke="#90a4ae" stroke-width="1.5" points="840.5,-277.35 837,-267.35 833.5,-277.35 840.5,-277.35"/>
</g>
<!-- L9b -->
<g id="node36" class="node">
<title>L9b</title>
<ellipse fill="#ffecb3" stroke="#ffa000" stroke-width="1.5" cx="694" cy="-339.09" rx="65.52" ry="26.74"/>
<text text-anchor="middle" x="694" y="-346.89" font-family="Arial" font-size="9.00">存储加密</text>
<text text-anchor="middle" x="694" y="-336.89" font-family="Arial" font-size="9.00">数据库字段级加密</text>
<text text-anchor="middle" x="694" y="-326.89" font-family="Arial" font-size="9.00">手机/邮箱/身份证号</text>
</g>
<!-- L9c -->
<g id="node37" class="node">
<title>L9c</title>
<ellipse fill="#ffecb3" stroke="#ffa000" stroke-width="1.5" cx="551" cy="-339.09" rx="62.87" ry="26.74"/>
<text text-anchor="middle" x="551" y="-346.89" font-family="Arial" font-size="9.00">ID 混淆</text>
<text text-anchor="middle" x="551" y="-336.89" font-family="Arial" font-size="9.00">Hashids 编解码</text>
<text text-anchor="middle" x="551" y="-326.89" font-family="Arial" font-size="9.00">真实主键从不暴露</text>
</g>
<!-- L9d -->
<g id="node38" class="node">
<title>L9d</title>
<ellipse fill="#ffecb3" stroke="#ffa000" stroke-width="1.5" cx="410" cy="-339.09" rx="64.19" ry="26.74"/>
<text text-anchor="middle" x="410" y="-346.89" font-family="Arial" font-size="9.00">数据脱敏</text>
<text text-anchor="middle" x="410" y="-336.89" font-family="Arial" font-size="9.00">导出自动脱敏</text>
<text text-anchor="middle" x="410" y="-326.89" font-family="Arial" font-size="9.00">手机: 138****1234</text>
</g>
<!-- L11a -->
<g id="node43" class="node">
<title>L11a</title>
<ellipse fill="#d7ccc8" stroke="#6d4c41" stroke-width="1.5" cx="837" cy="-141.61" rx="79.39" ry="26.74"/>
<text text-anchor="middle" x="837" y="-149.41" font-family="Arial" font-size="9.00">security.txt</text>
<text text-anchor="middle" x="837" y="-139.41" font-family="Arial" font-size="9.00">RFC 9116 标准</text>
<text text-anchor="middle" x="837" y="-129.41" font-family="Arial" font-size="9.00">/.well&#45;known/security.txt</text>
</g>
<!-- L10a&#45;&gt;L11a -->
<g id="edge11" class="edge">
<title>L10a&#45;&gt;L11a</title>
<path fill="none" stroke="#90a4ae" stroke-width="1.5" d="M837,-213.43C837,-202.8 837,-190.31 837,-178.81"/>
<polygon fill="#90a4ae" stroke="#90a4ae" stroke-width="1.5" points="840.5,-178.61 837,-168.61 833.5,-178.61 840.5,-178.61"/>
</g>
<!-- L10b -->
<g id="node40" class="node">
<title>L10b</title>
<ellipse fill="#b2ebf2" stroke="#0097a7" stroke-width="1.5" cx="664" cy="-240.35" rx="62.45" ry="26.74"/>
<text text-anchor="middle" x="664" y="-248.15" font-family="Arial" font-size="9.00">来源端检测</text>
<text text-anchor="middle" x="664" y="-238.15" font-family="Arial" font-size="9.00">识别8种平台</text>
<text text-anchor="middle" x="664" y="-228.15" font-family="Arial" font-size="9.00">Flutter/鸿蒙/API等</text>
</g>
<!-- L10c -->
<g id="node41" class="node">
<title>L10c</title>
<ellipse fill="#b2ebf2" stroke="#0097a7" stroke-width="1.5" cx="514" cy="-240.35" rx="73.58" ry="26.74"/>
<text text-anchor="middle" x="514" y="-248.15" font-family="Arial" font-size="9.00">Prometheus 指标</text>
<text text-anchor="middle" x="514" y="-238.15" font-family="Arial" font-size="9.00">5 项监控指标</text>
<text text-anchor="middle" x="514" y="-228.15" font-family="Arial" font-size="9.00">请求/用户/数据库/内存</text>
</g>
<!-- L10d -->
<g id="node42" class="node">
<title>L10d</title>
<ellipse fill="#b2ebf2" stroke="#0097a7" stroke-width="1.5" cx="347" cy="-240.35" rx="79.81" ry="26.74"/>
<text text-anchor="middle" x="347" y="-248.15" font-family="Arial" font-size="9.00">健康检查</text>
<text text-anchor="middle" x="347" y="-238.15" font-family="Arial" font-size="9.00">GET /health</text>
<text text-anchor="middle" x="347" y="-228.15" font-family="Arial" font-size="9.00">数据库/Redis/ES 连通性</text>
</g>
<!-- L12a -->
<g id="node46" class="node">
<title>L12a</title>
<ellipse fill="none" stroke="#9e9e9e" stroke-width="1.5" stroke-dasharray="5,2" cx="837" cy="-42.87" rx="62.87" ry="26.74"/>
<text text-anchor="middle" x="837" y="-50.67" font-family="Arial" font-size="9.00">分布式追踪</text>
<text text-anchor="middle" x="837" y="-40.67" font-family="Arial" font-size="9.00">OpenTelemetry</text>
<text text-anchor="middle" x="837" y="-30.67" font-family="Arial" font-size="9.00">X&#45;Trace&#45;Id 全链路</text>
</g>
<!-- L11a&#45;&gt;L12a -->
<g id="edge12" class="edge">
<title>L11a&#45;&gt;L12a</title>
<path fill="none" stroke="#bdbdbd" stroke-dasharray="5,2" d="M837,-114.69C837,-104.06 837,-91.57 837,-80.07"/>
<polygon fill="#bdbdbd" stroke="#bdbdbd" points="840.5,-79.87 837,-69.87 833.5,-79.87 840.5,-79.87"/>
</g>
<!-- L11b -->
<g id="node44" class="node">
<title>L11b</title>
<ellipse fill="#d7ccc8" stroke="#6d4c41" stroke-width="1.5" cx="681" cy="-141.61" rx="62.87" ry="26.74"/>
<text text-anchor="middle" x="681" y="-149.41" font-family="Arial" font-size="9.00">OpenAPI 3.0 文档</text>
<text text-anchor="middle" x="681" y="-139.41" font-family="Arial" font-size="9.00">GET /api/docs</text>
<text text-anchor="middle" x="681" y="-129.41" font-family="Arial" font-size="9.00">完整接口规范公开</text>
</g>
<!-- L11c -->
<g id="node45" class="node">
<title>L11c</title>
<ellipse fill="#d7ccc8" stroke="#6d4c41" stroke-width="1.5" cx="535" cy="-141.61" rx="69.09" ry="26.74"/>
<text text-anchor="middle" x="535" y="-149.41" font-family="Arial" font-size="9.00">错误信息净化</text>
<text text-anchor="middle" x="535" y="-139.41" font-family="Arial" font-size="9.00">生产环境不输出堆栈</text>
<text text-anchor="middle" x="535" y="-129.41" font-family="Arial" font-size="9.00">通用错误消息</text>
</g>
<!-- L12b -->
<g id="node47" class="node">
<title>L12b</title>
<ellipse fill="none" stroke="#9e9e9e" stroke-width="1.5" stroke-dasharray="5,2" cx="708" cy="-42.87" rx="51.74" ry="26.74"/>
<text text-anchor="middle" x="708" y="-50.67" font-family="Arial" font-size="9.00">业务指标</text>
<text text-anchor="middle" x="708" y="-40.67" font-family="Arial" font-size="9.00">订单量/履约率</text>
<text text-anchor="middle" x="708" y="-30.67" font-family="Arial" font-size="9.00">库存周转天数</text>
</g>
<!-- L12c -->
<g id="node48" class="node">
<title>L12c</title>
<ellipse fill="none" stroke="#9e9e9e" stroke-width="1.5" stroke-dasharray="5,2" cx="579" cy="-42.87" rx="62.87" ry="26.74"/>
<text text-anchor="middle" x="579" y="-50.67" font-family="Arial" font-size="9.00">审计增强</text>
<text text-anchor="middle" x="579" y="-40.67" font-family="Arial" font-size="9.00">业务级审计追踪</text>
<text text-anchor="middle" x="579" y="-30.67" font-family="Arial" font-size="9.00">敏感操作完整记录</text>
</g>
</g>
</svg>
