<?xml version="1.0" encoding="UTF-8" standalone="no"?>
<!DOCTYPE svg PUBLIC "-//W3C//DTD SVG 1.1//EN"
 "http://www.w3.org/Graphics/SVG/1.1/DTD/svg11.dtd">
<!-- Generated by graphviz version 2.42.4 (0)
 -->
<!-- Title: RoadmapPhases Pages: 1 -->
<svg width="1972pt" height="1021pt"
 viewBox="0.00 0.00 1972.20 1020.50" xmlns="http://www.w3.org/2000/svg" xmlns:xlink="http://www.w3.org/1999/xlink">
<g id="graph0" class="graph" transform="scale(1 1) rotate(0) translate(4 1016.5)">
<title>RoadmapPhases</title>
<g id="clust1" class="cluster">
<title>cluster_p0</title>
<path fill="#e3f2fd" stroke="#1565c0" stroke-width="2" d="M338,-845C338,-845 939.56,-845 939.56,-845 945.56,-845 951.56,-851 951.56,-857 951.56,-857 951.56,-981 951.56,-981 951.56,-987 945.56,-993 939.56,-993 939.56,-993 338,-993 338,-993 332,-993 326,-987 326,-981 326,-981 326,-857 326,-857 326,-851 332,-845 338,-845"/>
<text text-anchor="middle" x="638.78" y="-977.8" font-family="Arial Bold" font-size="14.00">✅ P0 Frontend Ecosystem (COMPLETED)</text>
</g>
<g id="clust2" class="cluster">
<title>cluster_p1</title>
<path fill="#e8f5e9" stroke="#2e7d32" stroke-width="2" d="M1005.56,-506C1005.56,-506 1247.88,-506 1247.88,-506 1253.88,-506 1259.88,-512 1259.88,-518 1259.88,-518 1259.88,-919 1259.88,-919 1259.88,-925 1253.88,-931 1247.88,-931 1247.88,-931 1005.56,-931 1005.56,-931 999.56,-931 993.56,-925 993.56,-919 993.56,-919 993.56,-518 993.56,-518 993.56,-512 999.56,-506 1005.56,-506"/>
<text text-anchor="middle" x="1126.72" y="-915.8" font-family="Arial Bold" font-size="14.00">✅ P1 Business Depth (COMPLETED)</text>
</g>
<g id="clust3" class="cluster">
<title>cluster_p2</title>
<path fill="#fff8e1" stroke="#f57f17" stroke-width="2" d="M1313.88,-257C1313.88,-257 1588.9,-257 1588.9,-257 1594.9,-257 1600.9,-263 1600.9,-269 1600.9,-269 1600.9,-587 1600.9,-587 1600.9,-593 1594.9,-599 1588.9,-599 1588.9,-599 1313.88,-599 1313.88,-599 1307.88,-599 1301.88,-593 1301.88,-587 1301.88,-587 1301.88,-269 1301.88,-269 1301.88,-263 1307.88,-257 1313.88,-257"/>
<text text-anchor="middle" x="1451.39" y="-583.8" font-family="Arial Bold" font-size="14.00">✅ P2 Operational Reliability (COMPLETED)</text>
</g>
<g id="clust4" class="cluster">
<title>cluster_p3</title>
<path fill="#f3e5f5" stroke="#6a1b9a" stroke-width="2" d="M1654.9,-8C1654.9,-8 1952.2,-8 1952.2,-8 1958.2,-8 1964.2,-14 1964.2,-20 1964.2,-20 1964.2,-338 1964.2,-338 1964.2,-344 1958.2,-350 1952.2,-350 1952.2,-350 1654.9,-350 1654.9,-350 1648.9,-350 1642.9,-344 1642.9,-338 1642.9,-338 1642.9,-20 1642.9,-20 1642.9,-14 1648.9,-8 1654.9,-8"/>
<text text-anchor="middle" x="1803.55" y="-334.8" font-family="Arial Bold" font-size="14.00">✅ P3 Experience Enhancement (COMPLETED)</text>
</g>
<g id="clust5" class="cluster">
<title>cluster_current</title>
<path fill="#f5f5f5" stroke="#616161" stroke-width="2" d="M20,-866C20,-866 272,-866 272,-866 278,-866 284,-872 284,-878 284,-878 284,-951 284,-951 284,-957 278,-963 272,-963 272,-963 20,-963 20,-963 14,-963 8,-957 8,-951 8,-951 8,-878 8,-878 8,-872 14,-866 20,-866"/>
<text text-anchor="middle" x="146" y="-947.8" font-family="Arial Bold" font-size="14.00">Full Delivery Baseline (2026&#45;08&#45;07)</text>
</g>
<!-- p0a -->
<g id="node1" class="node">
<title>p0a</title>
<ellipse fill="#bbdefb" stroke="#1976d2" stroke-width="1.5" cx="405.42" cy="-903" rx="71.34" ry="19.6"/>
<text text-anchor="middle" x="405.42" y="-905.8" font-family="Arial" font-size="9.00">Flutter Arch Refactor</text>
<text text-anchor="middle" x="405.42" y="-895.8" font-family="Arial" font-size="9.00">AdminLayout + GetX</text>
</g>
<!-- p0b -->
<g id="node2" class="node">
<title>p0b</title>
<ellipse fill="#bbdefb" stroke="#1976d2" stroke-width="1.5" cx="616.86" cy="-903" rx="82.05" ry="19.6"/>
<text text-anchor="middle" x="616.86" y="-905.8" font-family="Arial" font-size="9.00">Shared Components</text>
<text text-anchor="middle" x="616.86" y="-895.8" font-family="Arial" font-size="9.00">DataTable/Form/Confirm</text>
</g>
<!-- p0a&#45;&gt;p0b -->
<g id="edge1" class="edge">
<title>p0a&#45;&gt;p0b</title>
<path fill="none" stroke="black" d="M477.03,-903C492.23,-903 508.5,-903 524.36,-903"/>
<polygon fill="black" stroke="black" points="524.71,-906.5 534.71,-903 524.71,-899.5 524.71,-906.5"/>
</g>
<!-- p0c -->
<g id="node3" class="node">
<title>p0c</title>
<ellipse fill="#bbdefb" stroke="#1976d2" stroke-width="1.5" cx="850.22" cy="-873" rx="78.48" ry="19.6"/>
<text text-anchor="middle" x="850.22" y="-875.8" font-family="Arial" font-size="9.00">14 Modules 40+ Pages</text>
<text text-anchor="middle" x="850.22" y="-865.8" font-family="Arial" font-size="9.00">Full Admin Panel</text>
</g>
<!-- p0b&#45;&gt;p0c -->
<g id="edge2" class="edge">
<title>p0b&#45;&gt;p0c</title>
<path fill="none" stroke="black" d="M689.48,-893.71C714.9,-890.42 743.67,-886.69 769.71,-883.31"/>
<polygon fill="black" stroke="black" points="770.45,-886.74 779.92,-881.99 769.55,-879.8 770.45,-886.74"/>
</g>
<!-- p0d -->
<g id="node4" class="node">
<title>p0d</title>
<ellipse fill="#bbdefb" stroke="#1976d2" stroke-width="1.5" cx="850.22" cy="-942" rx="93.18" ry="19.6"/>
<text text-anchor="middle" x="850.22" y="-944.8" font-family="Arial" font-size="9.00">HarmonyOS Alignment</text>
<text text-anchor="middle" x="850.22" y="-934.8" font-family="Arial" font-size="9.00">Complete Remaining Pages</text>
</g>
<!-- p0b&#45;&gt;p0d -->
<g id="edge3" class="edge">
<title>p0b&#45;&gt;p0d</title>
<path fill="none" stroke="black" d="M684.47,-914.23C710.04,-918.54 739.53,-923.51 766.44,-928.05"/>
<polygon fill="black" stroke="black" points="766.17,-931.55 776.61,-929.76 767.33,-924.65 766.17,-931.55"/>
</g>
<!-- p1a -->
<g id="node5" class="node">
<title>p1a</title>
<ellipse fill="#c8e6c9" stroke="#388e3c" stroke-width="1.5" cx="1126.72" cy="-873" rx="96.33" ry="26.74"/>
<text text-anchor="middle" x="1126.72" y="-880.8" font-family="Arial" font-size="9.00">Double&#45;Entry Engine</text>
<text text-anchor="middle" x="1126.72" y="-870.8" font-family="Arial" font-size="9.00">Dr/Cr Balance/Period Close</text>
<text text-anchor="middle" x="1126.72" y="-860.8" font-family="Arial" font-size="9.00">Multi&#45;Currency Consolidation</text>
</g>
<!-- p0c&#45;&gt;p1a -->
<g id="edge5" class="edge">
<title>p0c&#45;&gt;p1a</title>
<path fill="none" stroke="#2e7d32" stroke-width="2" d="M928.78,-873C957.2,-873 989.85,-873 1020.3,-873"/>
<polygon fill="#2e7d32" stroke="#2e7d32" stroke-width="2" points="1020.53,-876.5 1030.53,-873 1020.53,-869.5 1020.53,-876.5"/>
</g>
<!-- p1b -->
<g id="node6" class="node">
<title>p1b</title>
<ellipse fill="#c8e6c9" stroke="#388e3c" stroke-width="1.5" cx="1126.72" cy="-790" rx="102.56" ry="26.74"/>
<text text-anchor="middle" x="1126.72" y="-797.8" font-family="Arial" font-size="9.00">Payroll Engine</text>
<text text-anchor="middle" x="1126.72" y="-787.8" font-family="Arial" font-size="9.00">Social Insurance/Housing Fund</text>
<text text-anchor="middle" x="1126.72" y="-777.8" font-family="Arial" font-size="9.00">Progressive Tax/Bank Export</text>
</g>
<!-- p1c -->
<g id="node7" class="node">
<title>p1c</title>
<ellipse fill="#c8e6c9" stroke="#388e3c" stroke-width="1.5" cx="1126.72" cy="-707" rx="96.75" ry="26.74"/>
<text text-anchor="middle" x="1126.72" y="-714.8" font-family="Arial" font-size="9.00">MRP Engine</text>
<text text-anchor="middle" x="1126.72" y="-704.8" font-family="Arial" font-size="9.00">BOM Explosion</text>
<text text-anchor="middle" x="1126.72" y="-694.8" font-family="Arial" font-size="9.00">Net Req + Order Suggestions</text>
</g>
<!-- p1d -->
<g id="node8" class="node">
<title>p1d</title>
<ellipse fill="#c8e6c9" stroke="#388e3c" stroke-width="1.5" cx="1126.72" cy="-624" rx="82.05" ry="26.74"/>
<text text-anchor="middle" x="1126.72" y="-631.8" font-family="Arial" font-size="9.00">Quality Management</text>
<text text-anchor="middle" x="1126.72" y="-621.8" font-family="Arial" font-size="9.00">IQC/IPQC/OQC</text>
<text text-anchor="middle" x="1126.72" y="-611.8" font-family="Arial" font-size="9.00">Nonconformity Handling</text>
</g>
<!-- p1e -->
<g id="node9" class="node">
<title>p1e</title>
<ellipse fill="#c8e6c9" stroke="#388e3c" stroke-width="1.5" cx="1126.72" cy="-541" rx="125.32" ry="26.74"/>
<text text-anchor="middle" x="1126.72" y="-548.8" font-family="Arial" font-size="9.00">Real&#45;time Notifications</text>
<text text-anchor="middle" x="1126.72" y="-538.8" font-family="Arial" font-size="9.00">WebSocket Push</text>
<text text-anchor="middle" x="1126.72" y="-528.8" font-family="Arial" font-size="9.00">Multi&#45;channel (Email/WeCom/DingTalk)</text>
</g>
<!-- p2a -->
<g id="node10" class="node">
<title>p2a</title>
<ellipse fill="#ffecb3" stroke="#ffa000" stroke-width="1.5" cx="1451.39" cy="-541" rx="73.58" ry="26.74"/>
<text text-anchor="middle" x="1451.39" y="-548.8" font-family="Arial" font-size="9.00">DB Schema Rollback</text>
<text text-anchor="middle" x="1451.39" y="-538.8" font-family="Arial" font-size="9.00">install.sql Rebuild</text>
<text text-anchor="middle" x="1451.39" y="-528.8" font-family="Arial" font-size="9.00">Backup + Restore</text>
</g>
<!-- p1e&#45;&gt;p2a -->
<g id="edge6" class="edge">
<title>p1e&#45;&gt;p2a</title>
<path fill="none" stroke="#f57f17" stroke-width="2" d="M1252.01,-541C1290.63,-541 1332.24,-541 1367.33,-541"/>
<polygon fill="#f57f17" stroke="#f57f17" stroke-width="2" points="1367.52,-544.5 1377.52,-541 1367.52,-537.5 1367.52,-544.5"/>
</g>
<!-- p2b -->
<g id="node11" class="node">
<title>p2b</title>
<ellipse fill="#ffecb3" stroke="#ffa000" stroke-width="1.5" cx="1451.39" cy="-458" rx="90.52" ry="26.74"/>
<text text-anchor="middle" x="1451.39" y="-465.8" font-family="Arial" font-size="9.00">Auto&#45;Backup Enhancement</text>
<text text-anchor="middle" x="1451.39" y="-455.8" font-family="Arial" font-size="9.00">Cron Scheduled Backup</text>
<text text-anchor="middle" x="1451.39" y="-445.8" font-family="Arial" font-size="9.00">Integrity Validation</text>
</g>
<!-- p2c -->
<g id="node12" class="node">
<title>p2c</title>
<ellipse fill="#ffecb3" stroke="#ffa000" stroke-width="1.5" cx="1451.39" cy="-375" rx="79.81" ry="26.74"/>
<text text-anchor="middle" x="1451.39" y="-382.8" font-family="Arial" font-size="9.00">Observability</text>
<text text-anchor="middle" x="1451.39" y="-372.8" font-family="Arial" font-size="9.00">OpenTelemetry</text>
<text text-anchor="middle" x="1451.39" y="-362.8" font-family="Arial" font-size="9.00">X&#45;Trace&#45;Id + Biz Metrics</text>
</g>
<!-- p2d -->
<g id="node13" class="node">
<title>p2d</title>
<ellipse fill="#ffecb3" stroke="#ffa000" stroke-width="1.5" cx="1451.39" cy="-292" rx="86.03" ry="26.74"/>
<text text-anchor="middle" x="1451.39" y="-299.8" font-family="Arial" font-size="9.00">Message Queue Upgrade</text>
<text text-anchor="middle" x="1451.39" y="-289.8" font-family="Arial" font-size="9.00">Redis to RabbitMQ</text>
<text text-anchor="middle" x="1451.39" y="-279.8" font-family="Arial" font-size="9.00">Pluggable Driver</text>
</g>
<!-- p3a -->
<g id="node14" class="node">
<title>p3a</title>
<ellipse fill="#e1bee7" stroke="#7b1fa2" stroke-width="1.5" cx="1803.55" cy="-292" rx="75.82" ry="26.74"/>
<text text-anchor="middle" x="1803.55" y="-299.8" font-family="Arial" font-size="9.00">BI Dashboards</text>
<text text-anchor="middle" x="1803.55" y="-289.8" font-family="Arial" font-size="9.00">Drag&#45;and&#45;drop Layout</text>
<text text-anchor="middle" x="1803.55" y="-279.8" font-family="Arial" font-size="9.00">Bar/Line/Pie Widgets</text>
</g>
<!-- p2d&#45;&gt;p3a -->
<g id="edge7" class="edge">
<title>p2d&#45;&gt;p3a</title>
<path fill="none" stroke="#6a1b9a" stroke-width="2" d="M1538.05,-292C1592.64,-292 1663.08,-292 1717.54,-292"/>
<polygon fill="#6a1b9a" stroke="#6a1b9a" stroke-width="2" points="1717.87,-295.5 1727.87,-292 1717.87,-288.5 1717.87,-295.5"/>
</g>
<!-- p3b -->
<g id="node15" class="node">
<title>p3b</title>
<ellipse fill="#e1bee7" stroke="#7b1fa2" stroke-width="1.5" cx="1803.55" cy="-209" rx="104.8" ry="26.74"/>
<text text-anchor="middle" x="1803.55" y="-216.8" font-family="Arial" font-size="9.00">EAM Equipment Mgmt</text>
<text text-anchor="middle" x="1803.55" y="-206.8" font-family="Arial" font-size="9.00">Equipment Ledger/Maintenance</text>
<text text-anchor="middle" x="1803.55" y="-196.8" font-family="Arial" font-size="9.00">Repair Orders/Spare Parts</text>
</g>
<!-- p3c -->
<g id="node16" class="node">
<title>p3c</title>
<ellipse fill="#e1bee7" stroke="#7b1fa2" stroke-width="1.5" cx="1803.55" cy="-126" rx="85.62" ry="26.74"/>
<text text-anchor="middle" x="1803.55" y="-133.8" font-family="Arial" font-size="9.00">Multi&#45;Tenancy</text>
<text text-anchor="middle" x="1803.55" y="-123.8" font-family="Arial" font-size="9.00">Shared DB + tenant_id</text>
<text text-anchor="middle" x="1803.55" y="-113.8" font-family="Arial" font-size="9.00">TenantScope Middleware</text>
</g>
<!-- p3d -->
<g id="node17" class="node">
<title>p3d</title>
<ellipse fill="#e1bee7" stroke="#7b1fa2" stroke-width="1.5" cx="1803.55" cy="-43" rx="90.52" ry="26.74"/>
<text text-anchor="middle" x="1803.55" y="-50.8" font-family="Arial" font-size="9.00">Document Management</text>
<text text-anchor="middle" x="1803.55" y="-40.8" font-family="Arial" font-size="9.00">Controlled Docs/Versioning</text>
<text text-anchor="middle" x="1803.55" y="-30.8" font-family="Arial" font-size="9.00">Approval + Publishing</text>
</g>
<!-- cur -->
<g id="node18" class="node">
<title>cur</title>
<path fill="#e0e0e0" stroke="#757575" stroke-width="1.5" d="M264,-932C264,-932 28,-932 28,-932 22,-932 16,-926 16,-920 16,-920 16,-886 16,-886 16,-880 22,-874 28,-874 28,-874 264,-874 264,-874 270,-874 276,-880 276,-886 276,-886 276,-920 276,-920 276,-926 270,-932 264,-932"/>
<text text-anchor="middle" x="146" y="-920.8" font-family="Arial" font-size="9.00">Backend 23 Business Domains 159 Controllers 224 Models</text>
<text text-anchor="middle" x="146" y="-910.8" font-family="Arial" font-size="9.00">Security 7&#45;Layer Middleware Chain (L0&#45;L12 Panorama)</text>
<text text-anchor="middle" x="146" y="-900.8" font-family="Arial" font-size="9.00">63 Business Services</text>
<text text-anchor="middle" x="146" y="-890.8" font-family="Arial" font-size="9.00">Docker Compose 5 Services + CI/CD</text>
<text text-anchor="middle" x="146" y="-880.8" font-family="Arial" font-size="9.00">Overall Score: 89/100</text>
</g>
<!-- cur&#45;&gt;p0a -->
<g id="edge4" class="edge">
<title>cur&#45;&gt;p0a</title>
<path fill="none" stroke="#1565c0" stroke-width="2" d="M276.09,-903C292.29,-903 308.49,-903 323.65,-903"/>
<polygon fill="#1565c0" stroke="#1565c0" stroke-width="2" points="323.97,-906.5 333.97,-903 323.97,-899.5 323.97,-906.5"/>
</g>
<!-- legend -->
<g id="node19" class="node">
<title>legend</title>
<polygon fill="#fafafa" stroke="#9e9e9e" stroke-width="1.5" points="267.5,-1012.5 18.5,-1012.5 18.5,-971.5 273.5,-971.5 273.5,-1006.5 267.5,-1012.5"/>
<polyline fill="none" stroke="#9e9e9e" stroke-width="1.5" points="267.5,-1012.5 267.5,-1006.5 "/>
<polyline fill="none" stroke="#9e9e9e" stroke-width="1.5" points="273.5,-1006.5 267.5,-1006.5 "/>
<text text-anchor="middle" x="146" y="-1000.5" font-family="Arial" font-size="10.00">Serial Waterfall: P0 to P1 to P2 to P3</text>
<text text-anchor="middle" x="146" y="-989.5" font-family="Arial" font-size="10.00">Independent subtasks can run in parallel within phases</text>
<text text-anchor="middle" x="146" y="-978.5" font-family="Arial" font-size="10.00">Total ~13 weeks</text>
</g>
</g>
</svg>
